<?xml version="1.0" encoding="UTF-8" standalone="no"?><!DOCTYPE svg PUBLIC "-//W3C//DTD SVG 1.1//EN" "http://www.w3.org/Graphics/SVG/1.1/DTD/svg11.dtd"><svg width="100%" height="100%" viewBox="0 0 16496 16496" version="1.1" xmlns="http://www.w3.org/2000/svg" xmlns:xlink="http://www.w3.org/1999/xlink" xml:space="preserve" xmlns:serif="http://www.serif.com/" style="fill-rule:evenodd;clip-rule:evenodd;stroke-linejoin:round;stroke-miterlimit:2;"><g><circle cx="8246.54" cy="8246.54" r="8246.54"/><path d="M5963.96,3646.91c-35.054,19.709 -79.325,37.442 -95.933,39.417c-18.45,0 -33.208,7.888 -33.208,19.709c-0,9.858 -16.605,19.708 -36.9,19.708c-20.296,-0 -36.892,7.887 -36.892,19.708c-0,9.859 -16.604,19.709 -36.9,19.709c-20.296,-0 -36.9,7.887 -36.9,19.708c-0,9.862 -16.604,19.712 -36.9,19.712c-20.296,0 -36.9,7.884 -36.9,19.709c-0,9.858 -11.063,19.708 -23.975,19.708c-12.917,0 -151.283,70.958 -308.096,157.675c-156.817,84.746 -335.775,183.292 -396.658,214.825c-60.875,31.538 -180.8,98.542 -265.663,147.817c-86.716,51.241 -166.041,90.658 -178.954,90.658c-12.917,0 -25.833,5.921 -29.521,13.796c-7.379,21.683 -160.508,104.466 -191.871,104.466c-14.754,0 -25.82,7.876 -25.82,19.709c-0,9.85 -16.609,19.708 -36.9,19.708c-20.296,0 -36.9,7.883 -36.9,19.708c-0,9.851 -16.609,19.709 -35.059,19.709c-20.291,-0 -38.733,5.912 -42.425,13.796c-1.846,9.85 -101.475,67.012 -217.7,132.05c-505.504,275.921 -785.925,431.625 -800.687,447.395c-11.067,9.851 -33.209,17.734 -51.659,17.734c-18.441,-0 -33.2,7.887 -33.2,19.708c0,9.863 -16.604,19.713 -36.9,19.713c-20.295,-0 -36.9,7.883 -36.9,19.708c0,9.858 -16.604,19.708 -36.9,19.708c-20.295,0 -36.891,7.884 -36.891,19.709c-0,9.858 -16.604,19.708 -35.054,19.708c-20.296,0 -38.746,5.913 -42.438,15.771c-1.842,7.883 -62.729,45.329 -134.675,82.771c-70.108,37.454 -175.267,96.579 -230.617,130.083c-156.816,96.571 -536.858,303.517 -555.308,303.517c-27.675,-0 -129.142,104.462 -156.817,161.616c-35.054,70.95 -33.208,163.58 5.538,228.625c55.35,96.571 142.054,181.317 182.646,181.317c23.983,0 46.125,7.888 51.65,17.746c5.533,9.85 36.9,21.671 70.108,27.592c33.213,5.912 94.088,19.708 134.679,31.533c40.588,9.85 99.629,25.621 129.138,31.533c31.366,7.884 71.958,19.709 92.25,29.567c20.296,9.85 62.721,21.671 92.241,29.558c31.367,5.913 88.563,21.684 129.142,31.534c40.592,11.829 101.475,25.629 134.675,31.537c33.213,5.913 64.575,17.738 70.113,27.596c5.533,9.85 36.9,17.733 71.954,17.733c35.046,0 68.254,7.888 73.791,19.709c5.534,9.85 38.746,19.712 73.8,19.712c35.046,0 66.409,7.883 71.946,17.733c5.534,9.859 36.9,21.684 70.109,27.592c33.204,5.913 95.933,19.713 140.212,31.533c42.433,11.834 110.692,29.567 151.279,41.392c40.592,9.858 107.004,27.592 147.592,39.417c415.1,110.375 784.079,218.771 815.446,236.512c18.45,11.825 57.187,19.709 86.708,19.709c31.363,-0 60.883,7.887 66.417,19.708c5.537,9.85 38.737,19.708 73.791,19.708c35.055,0 66.421,7.888 71.955,17.738c5.537,9.858 42.429,21.679 79.329,27.591c90.404,11.825 300.716,68.988 341.304,94.609c18.45,9.846 62.733,17.733 97.779,17.733c35.054,0 64.575,7.883 64.575,19.708c0,9.859 33.208,19.709 71.954,19.709c40.579,-0 77.479,7.887 83.017,17.746c5.533,9.85 36.9,21.67 70.108,27.583c33.2,7.887 90.396,17.746 125.45,23.654c35.046,7.888 81.171,19.708 101.467,29.558c20.296,9.863 62.729,21.684 92.242,29.571c31.366,5.909 86.716,19.709 125.458,29.567c36.892,11.821 103.312,29.558 147.592,39.417c42.425,11.825 107,29.558 142.058,39.416c35.054,9.85 226.917,63.063 424.321,118.254c197.408,55.188 376.362,108.4 396.658,118.25c20.288,9.859 62.721,21.684 92.242,25.621c94.083,17.742 311.787,74.896 344.996,94.604c18.45,9.859 57.187,17.738 86.708,17.738c31.362,-0 59.037,7.883 64.575,17.742c5.533,9.85 36.9,21.683 70.1,27.595c33.208,5.909 103.321,21.671 153.125,33.505c51.658,11.825 119.925,27.583 153.125,33.504c33.212,5.912 64.575,17.737 70.113,27.587c5.533,9.859 36.899,17.742 71.945,17.742c35.055,-0 68.263,7.887 73.8,19.708c5.534,9.85 35.055,19.709 64.575,19.709c29.509,-0 57.184,7.887 62.721,17.737c5.533,9.858 42.433,21.683 79.334,27.592c38.737,5.912 103.312,19.708 143.899,31.533c136.521,37.454 221.384,59.125 276.734,70.958c31.367,7.875 71.946,19.709 92.242,29.559c31.366,15.771 370.825,114.312 682.612,199.058c40.592,9.863 105.158,27.596 143.904,37.454c36.9,11.825 99.621,27.596 138.367,37.446c136.521,33.504 158.658,65.038 114.379,159.642c-9.225,21.679 -25.821,57.15 -36.892,78.833c-9.225,21.683 -18.45,57.163 -18.45,78.833c0,21.684 -7.379,39.421 -14.758,39.421c-7.383,0 -25.833,41.388 -38.746,92.629c-14.758,53.217 -33.208,108.405 -40.592,124.171c-11.066,27.596 -31.354,76.863 -70.099,181.325c-9.225,25.621 -33.209,84.75 -53.505,134.017c-20.296,49.275 -66.412,169.5 -101.466,268.042c-35.054,98.545 -73.8,199.062 -84.871,222.716c-11.071,21.675 -27.667,59.125 -38.733,80.809c-9.225,21.675 -18.45,57.154 -18.45,78.833c-0,21.675 -7.384,39.417 -18.45,39.417c-9.225,-0 -18.45,17.737 -18.45,37.445c-0,21.684 -7.384,45.33 -18.45,51.242c-9.225,5.921 -18.45,33.504 -18.45,61.1c-0,25.621 -7.384,47.3 -18.45,47.3c-9.225,0 -18.45,13.796 -18.45,29.567c-0,15.762 -7.384,47.304 -18.442,68.979c-9.225,21.679 -25.833,57.158 -36.9,78.842c-9.225,21.675 -18.45,57.154 -18.45,78.833c-0,21.675 -7.383,39.417 -18.45,39.417c-9.225,-0 -18.45,13.8 -18.45,29.562c-0,15.767 -7.379,45.325 -16.604,65.046c-14.763,31.529 -31.367,70.95 -75.638,191.175c-9.225,27.592 -25.829,70.946 -36.9,98.542c-9.225,27.591 -25.829,68.983 -35.054,92.633c-9.225,25.617 -29.521,76.867 -44.283,114.312c-14.75,37.442 -55.338,143.871 -88.55,236.505c-33.209,92.629 -68.263,169.5 -75.634,173.437c-7.383,3.946 -14.762,19.708 -14.762,35.479c-0,15.771 -7.379,43.354 -16.604,63.067c-16.604,33.504 -42.434,100.517 -73.8,185.271c-25.829,74.887 -60.875,161.608 -77.484,197.087c-9.225,19.709 -16.604,49.275 -16.604,65.038c0,15.766 -7.379,29.566 -18.45,29.566c-9.225,0 -18.45,11.821 -18.45,25.621c0,67.009 -47.966,132.046 -95.929,132.046c-27.675,0 -55.35,-9.85 -60.887,-19.708c-5.534,-11.821 -38.742,-19.709 -73.788,-19.709c-35.058,0 -68.267,-9.85 -73.8,-19.708c-5.537,-11.821 -44.283,-19.708 -83.017,-19.708c-38.745,-0 -77.491,-9.859 -83.025,-19.709c-5.537,-11.825 -35.054,-19.708 -66.42,-19.708c-29.513,0 -68.259,-7.887 -86.709,-17.737c-16.604,-9.859 -154.971,-51.246 -308.096,-90.667c-151.279,-39.417 -442.77,-116.275 -645.712,-169.492c-202.942,-53.212 -385.579,-106.429 -405.875,-116.287c-20.296,-7.884 -60.883,-21.679 -92.25,-29.559c-29.508,-5.92 -84.858,-19.708 -119.917,-29.566c-149.433,-41.392 -234.296,-63.071 -291.491,-72.921c-33.209,-5.913 -64.575,-17.738 -70.109,-27.596c-5.525,-9.85 -36.891,-17.733 -71.946,-17.733c-35.054,-0 -68.266,-9.859 -73.8,-19.709c-5.537,-9.862 -38.737,-19.712 -73.791,-19.712c-35.054,-0 -66.421,-7.883 -71.954,-17.742c-5.538,-9.85 -42.425,-21.675 -79.325,-27.583c-97.788,-13.8 -173.425,-33.508 -217.705,-53.217c-20.295,-9.858 -60.875,-21.683 -92.241,-29.566c-29.517,-5.913 -88.559,-19.709 -129.138,-31.534c-70.112,-17.741 -112.546,-29.566 -280.433,-76.871c-38.738,-9.85 -94.088,-23.645 -125.45,-29.558c-29.521,-7.883 -71.946,-21.679 -92.242,-31.537c-20.296,-9.85 -156.816,-49.271 -304.408,-86.721c-147.592,-37.446 -287.8,-76.863 -313.629,-86.721c-46.125,-17.733 -149.438,-47.292 -285.959,-84.746c-201.095,-53.212 -214.012,-59.125 -250.912,-141.9c-18.45,-43.362 -35.046,-94.604 -35.046,-112.346c0,-19.712 -7.379,-41.383 -18.45,-47.296c-9.225,-5.92 -18.45,-33.504 -18.45,-59.133c0,-25.621 -7.379,-53.217 -18.45,-59.125c-9.225,-5.912 -18.45,-33.508 -18.45,-59.129c0,-25.621 -7.379,-53.213 -18.45,-59.125c-9.225,-5.913 -18.45,-33.504 -18.45,-59.125c0,-25.621 -7.379,-53.217 -18.45,-59.125c-9.225,-5.913 -18.45,-33.508 -18.45,-59.129c0,-25.617 -7.379,-53.213 -18.442,-59.125c-9.225,-5.913 -18.45,-33.504 -18.45,-59.125c0,-25.629 -7.379,-53.225 -18.45,-59.134c-9.225,-5.912 -18.45,-33.508 -18.45,-59.129c0,-25.616 -7.379,-53.212 -18.45,-59.125c-9.225,-5.912 -18.45,-31.533 -18.45,-57.15c0,-23.658 -7.379,-51.25 -14.758,-61.1c-9.225,-11.825 -35.054,-86.721 -57.187,-167.529c-23.984,-80.808 -49.813,-163.579 -59.038,-181.325c-9.225,-19.708 -16.604,-53.212 -16.604,-72.921c-0,-21.675 -7.383,-45.329 -18.45,-51.241c-9.225,-5.913 -18.45,-31.534 -18.45,-57.155c-0,-23.654 -7.383,-51.25 -16.608,-63.07c-9.217,-9.85 -47.959,-120.225 -84.859,-244.392c-38.746,-124.171 -75.646,-234.538 -84.862,-244.388c-9.225,-11.833 -16.604,-39.425 -16.604,-63.07c-0,-25.621 -7.38,-51.242 -18.45,-57.155c-9.225,-5.92 -18.45,-33.504 -18.45,-59.133c-0,-25.621 -7.38,-53.217 -18.45,-59.129c-9.225,-5.908 -18.45,-33.504 -18.45,-61.088c-0,-25.629 -7.38,-47.304 -18.45,-47.304c-9.225,0 -18.45,-19.708 -18.45,-45.337c-0,-51.242 -38.738,-151.759 -59.034,-151.759c-9.225,0 -14.758,-9.85 -14.758,-21.67c-0,-104.467 -249.067,-120.23 -343.154,-19.721c-107,110.379 -107,145.854 -14.759,437.546c46.125,145.845 88.559,287.745 94.096,319.287c5.525,29.558 16.596,59.125 25.821,65.038c9.225,5.912 16.604,27.591 16.604,49.275c0,19.708 7.379,53.216 16.604,72.925c9.225,17.733 27.675,72.92 40.592,122.187c12.917,49.279 29.521,96.579 38.746,106.429c7.379,11.825 14.758,39.417 14.758,63.075c0,25.617 9.217,51.238 18.442,57.15c9.225,5.913 18.45,33.509 18.45,59.125c-0,25.621 9.225,53.217 18.45,59.129c9.225,5.921 18.45,37.45 18.45,70.959c-0,31.529 9.225,57.15 18.45,57.15c11.071,-0 18.45,25.621 18.45,57.162c-0,33.504 7.379,65.038 18.45,70.95c11.071,5.913 18.45,33.504 18.45,61.1c-0,25.617 9.225,47.3 18.442,47.3c11.07,0 18.45,25.621 18.45,57.154c-0,33.505 9.225,65.038 18.45,70.95c11.07,5.909 18.45,33.505 18.45,59.134c-0,25.621 9.225,53.212 18.45,59.125c9.225,5.912 18.45,33.508 18.45,59.125c-0,25.621 9.225,53.216 18.45,59.129c9.225,5.908 18.45,29.558 18.45,51.237c-0,19.709 7.379,53.217 16.604,72.925c11.062,17.742 49.804,135.996 86.704,260.159c36.9,124.162 73.8,234.537 81.175,246.362c5.533,9.859 22.137,59.125 35.054,108.404c31.363,116.275 51.658,161.605 99.629,220.742c46.117,55.179 217.692,159.642 298.871,181.317c107,27.591 221.383,53.212 282.267,65.046c33.212,5.908 64.566,17.733 70.104,27.583c5.533,9.858 38.742,17.746 73.8,17.746c35.054,-0 62.729,7.883 62.729,17.733c0,9.858 27.667,21.683 60.875,27.596c31.367,7.883 88.558,17.733 123.604,23.646c35.059,7.883 81.184,19.708 101.475,29.566c20.296,9.85 62.725,21.684 92.242,27.596c64.575,11.821 73.8,13.796 590.367,161.613c463.066,130.075 470.445,132.05 793.304,214.825c71.954,17.741 143.9,41.387 160.504,51.246c18.45,9.85 57.196,17.737 86.717,17.737c31.354,0 60.875,9.85 66.412,19.708c5.533,11.825 38.742,19.709 73.8,19.709c35.054,-0 68.254,9.85 73.792,19.708c5.533,11.825 38.741,19.708 73.8,19.708c35.054,0 68.254,7.888 73.787,19.709c5.538,9.858 33.213,19.708 59.042,19.708c49.817,0 154.971,31.533 212.167,61.1c18.441,9.85 57.183,17.738 86.704,17.738c31.366,-0 59.041,7.883 64.575,17.741c5.537,9.85 42.429,21.675 79.329,27.588c94.083,13.796 175.262,35.479 752.712,201.033c214.013,61.096 418.796,120.225 457.534,130.083c36.9,9.85 103.321,27.592 147.591,39.417c42.434,11.825 123.617,25.621 178.955,31.533c55.35,5.909 108.858,17.734 118.075,27.592c11.066,9.85 70.108,17.738 132.837,17.738c142.058,-0 219.538,-51.242 284.113,-187.238c25.829,-55.179 51.65,-102.483 57.187,-108.392c5.533,-5.912 22.138,-51.25 36.9,-104.466c12.913,-51.242 29.517,-92.629 35.054,-92.629c7.379,-0 23.984,-43.359 36.9,-98.546c12.913,-53.213 31.363,-98.542 40.579,-98.542c7.384,0 14.763,-13.796 14.763,-29.567c-0,-15.762 7.379,-45.329 16.604,-65.037c9.225,-17.738 25.829,-61.1 38.746,-92.633c12.912,-33.505 29.517,-72.921 35.054,-88.692c7.379,-15.763 25.829,-70.95 40.588,-124.167c12.908,-51.237 31.358,-92.629 38.737,-92.629c7.379,0 14.763,-13.796 14.763,-29.567c-0,-15.762 7.379,-45.329 16.604,-65.037c9.225,-17.738 23.983,-55.188 33.208,-82.775c33.213,-86.717 64.567,-167.525 81.171,-203.004c9.225,-17.738 55.35,-135.988 101.475,-262.134c44.271,-124.166 90.396,-242.416 97.775,-260.15c9.225,-17.746 25.833,-57.162 36.9,-88.695c11.071,-29.567 29.521,-76.871 40.592,-108.4c11.07,-29.559 27.666,-68.98 36.891,-86.721c9.225,-19.709 16.604,-49.267 16.604,-65.038c0,-15.771 9.225,-29.567 18.45,-29.567c11.071,0 18.45,-21.675 18.45,-49.266c0,-27.596 7.38,-49.279 14.759,-49.279c9.225,-0 27.675,-43.355 40.591,-98.542c12.917,-53.213 31.359,-98.542 40.584,-98.542c7.379,0 14.758,-13.8 14.758,-29.571c0,-15.758 16.604,-72.92 38.746,-124.162c22.137,-51.242 44.279,-110.367 53.504,-132.05c44.271,-124.171 81.171,-218.767 136.521,-350.817c25.829,-63.071 47.971,-118.258 47.971,-126.146c-0,-7.875 25.821,-74.887 57.183,-151.754c31.367,-76.862 64.575,-157.671 71.958,-179.354c7.38,-21.679 31.355,-80.808 53.496,-132.046c22.138,-51.241 38.746,-108.404 38.746,-124.166c0,-15.771 9.221,-29.567 18.446,-29.567c11.071,-0 18.45,-17.733 18.45,-39.417c-0,-21.683 9.225,-39.416 18.45,-39.416c11.071,-0 18.45,-13.796 18.45,-29.567c-0,-39.421 83.017,-128.104 119.917,-128.104c14.762,-0 27.675,-9.859 27.675,-19.709c-0,-11.833 16.608,-19.708 36.891,-19.708c20.296,0 36.9,-9.858 36.9,-19.708c0,-11.834 16.604,-19.709 35.054,-19.709c20.296,0 38.746,-7.887 42.438,-17.745c3.687,-7.884 64.567,-47.3 134.675,-86.717c71.946,-37.446 215.846,-116.279 322.858,-175.404c107,-57.163 197.396,-110.379 199.242,-118.263c3.687,-9.85 22.137,-15.762 42.433,-15.762c18.45,-0 35.054,-9.859 35.054,-19.709c0,-11.82 16.609,-19.708 36.9,-19.708c20.296,0 36.9,-9.858 36.9,-19.708c0,-11.834 16.6,-19.709 36.892,-19.709c20.296,0 36.9,-9.858 36.9,-19.708c0,-11.833 16.604,-19.708 36.9,-19.708c20.296,-0 36.9,-9.859 36.9,-19.717c0,-11.825 16.596,-19.708 35.046,-19.708c20.296,-0 38.746,-5.913 42.437,-15.763c3.688,-7.887 108.846,-70.958 236.15,-139.933c335.763,-183.3 466.759,-262.133 492.58,-297.604c12.916,-15.771 23.983,-80.809 23.983,-141.909c-0,-124.162 -18.45,-161.616 -136.521,-268.045c-46.125,-39.417 -129.137,-27.592 -241.675,35.479c-57.196,31.533 -116.237,59.125 -130.987,59.125c-14.759,-0 -25.83,7.887 -25.83,19.712c0,9.859 -16.604,19.709 -36.9,19.709c-20.295,-0 -36.9,7.883 -36.9,19.708c0,9.858 -16.604,19.708 -36.9,19.708c-20.287,0 -36.891,7.884 -36.891,19.709c-0,9.858 -16.604,19.708 -36.9,19.708c-20.296,-0 -36.9,7.883 -36.9,19.708c-0,9.859 -16.604,19.709 -36.9,19.709c-20.296,-0 -36.892,7.887 -36.892,19.708c0,9.858 -16.604,19.708 -36.9,19.708c-20.296,0 -36.9,7.888 -36.9,19.709c0,9.858 -16.604,19.708 -35.054,19.708c-20.296,0 -38.738,5.921 -42.425,13.8c-5.538,13.796 -324.704,193.146 -780.392,437.546c-90.404,49.267 -167.883,96.566 -171.575,104.454c-3.691,9.85 -22.141,15.771 -42.433,15.771c-18.45,-0 -35.058,7.875 -35.058,19.708c-0,9.85 -16.605,19.709 -36.9,19.709c-20.284,-0 -36.892,7.875 -36.892,19.708c-0,9.85 -16.604,19.708 -36.9,19.708c-20.292,0 -36.896,7.888 -36.896,19.709c0,9.85 -16.608,19.708 -36.9,19.708c-20.296,-0 -36.892,7.887 -36.892,19.708c0,9.85 -46.125,19.709 -101.475,19.709c-55.341,-0 -101.466,-9.859 -101.466,-19.709c-0,-11.821 -33.213,-19.708 -71.954,-19.708c-40.584,-0 -79.33,-9.858 -84.863,-19.708c-5.533,-11.821 -38.746,-19.709 -73.8,-19.709c-35.046,0 -68.258,-9.858 -73.792,-19.708c-5.533,-11.833 -38.745,-19.708 -73.8,-19.708c-35.046,-0 -68.254,-7.888 -73.791,-19.709c-5.534,-11.833 -38.746,-19.708 -73.8,-19.708c-35.055,-0 -66.409,-7.888 -71.946,-17.746c-5.534,-9.85 -36.9,-21.679 -70.109,-27.592c-94.087,-17.737 -191.87,-43.358 -891.083,-240.45c-418.787,-118.254 -475.983,-135.987 -594.054,-167.52c-44.279,-9.859 -110.7,-27.596 -147.592,-39.417c-38.741,-9.858 -94.091,-23.658 -125.458,-29.567c-29.513,-7.887 -71.946,-19.708 -92.242,-29.571c-20.296,-9.85 -60.883,-21.67 -92.241,-27.583c-29.517,-3.946 -92.25,-19.708 -138.367,-31.542c-46.125,-11.82 -110.7,-27.591 -143.908,-33.504c-33.2,-5.912 -64.567,-17.737 -70.1,-27.587c-5.538,-9.859 -36.9,-17.742 -71.955,-17.742c-35.045,0 -66.412,-7.887 -71.945,-17.733c-5.538,-9.863 -36.9,-21.684 -70.113,-27.596c-33.208,-5.913 -94.083,-19.708 -134.675,-31.533c-40.592,-9.859 -108.846,-29.567 -151.283,-41.392c-44.279,-9.858 -110.688,-27.592 -147.588,-39.417c-38.745,-9.858 -94.087,-23.654 -125.454,-29.566c-29.517,-7.875 -71.954,-21.671 -92.25,-31.534c-31.354,-13.796 -450.15,-132.046 -691.829,-195.121c-180.8,-45.329 -309.942,-80.8 -361.6,-98.541c-31.367,-11.825 -73.792,-19.709 -95.933,-19.709c-20.296,0 -44.28,-9.85 -49.813,-19.708c-5.537,-11.825 -38.746,-19.708 -73.792,-19.708c-35.054,-0 -68.266,-9.85 -73.8,-19.709c-5.537,-11.825 -38.745,-19.708 -73.791,-19.708c-35.054,-0 -68.267,-9.863 -73.8,-19.713c-5.538,-11.82 -38.746,-19.708 -73.792,-19.708c-35.054,0 -68.267,-9.858 -73.8,-19.708c-5.533,-11.821 -40.591,-19.709 -75.646,-19.709c-35.046,0 -62.721,-9.858 -62.721,-19.708c0,-11.821 -33.208,-19.708 -73.8,-19.708c-40.579,-0 -73.791,-9.859 -73.791,-19.709c-0,-11.825 -27.675,-19.708 -62.729,-19.708c-35.055,0 -70.1,-9.858 -75.638,-19.708c-5.533,-11.834 -38.742,-19.709 -73.8,-19.709c-35.054,0 -68.254,-9.858 -73.787,-19.708c-5.538,-11.833 -38.746,-19.708 -73.8,-19.708c-35.059,-0 -68.259,-9.859 -73.792,-19.709c-5.538,-11.833 -38.746,-19.72 -73.8,-19.72c-35.054,-0 -68.258,-9.85 -73.792,-19.709c-5.533,-11.821 -35.054,-19.708 -66.421,-19.708c-29.52,-0 -68.262,-7.875 -86.704,-19.708c-16.608,-9.85 -151.283,-51.242 -298.883,-88.684c-147.592,-39.416 -282.267,-80.808 -298.871,-90.666c-18.45,-9.85 -46.117,-17.738 -64.567,-17.738c-16.604,0 -55.35,-7.883 -86.716,-17.733c-31.354,-9.859 -92.238,-27.596 -134.675,-39.417c-149.434,-41.392 -236.142,-68.987 -249.054,-78.846c-27.675,-25.616 46.125,-84.746 193.712,-155.696c36.892,-17.741 68.258,-39.416 68.258,-47.3c0,-9.858 16.605,-15.77 35.055,-15.77c20.295,-0 38.745,-5.913 42.433,-15.763c5.537,-11.833 289.65,-171.475 725.042,-407.979c81.17,-43.363 151.283,-84.746 153.125,-92.629c3.691,-9.859 22.141,-15.771 42.437,-15.771c18.45,-0 35.046,-9.85 35.046,-19.708c-0,-11.825 16.604,-19.709 36.9,-19.709c20.296,0 36.9,-9.85 36.9,-19.708c-0,-11.825 16.604,-19.708 36.9,-19.708c20.296,-0 36.9,-9.85 36.9,-19.713c-0,-11.821 16.596,-19.708 35.046,-19.708c20.296,-0 38.746,-5.909 42.433,-15.771c5.538,-11.821 138.367,-86.717 1057.12,-583.379c182.646,-98.546 335.771,-185.267 337.617,-193.15c3.687,-9.85 16.604,-15.771 29.516,-15.771c12.917,-0 145.75,-67 295.184,-149.783l271.196,-147.821l289.65,72.925c158.658,39.416 298.871,78.833 308.096,86.721c11.07,7.883 47.97,19.708 83.025,25.616c35.054,5.913 97.775,19.713 138.366,31.542c75.646,19.708 154.971,41.383 304.409,80.8c46.125,11.833 110.691,27.596 143.9,33.504c33.208,5.921 64.575,17.746 70.108,27.596c5.537,9.858 36.892,17.746 71.946,17.746c35.058,-0 66.421,7.875 71.958,17.733c5.533,9.85 42.425,21.683 79.325,27.592c38.746,5.912 103.321,19.712 143.9,31.533c162.35,43.367 241.688,65.038 300.717,74.896c33.212,5.912 64.575,17.737 70.112,27.596c5.534,9.85 36.9,17.733 71.946,17.733c35.054,0 68.263,7.888 73.8,19.708c5.533,9.859 38.742,19.709 73.8,19.709c35.046,-0 68.254,7.887 73.788,19.708c5.537,9.863 35.058,19.713 66.42,19.713c29.513,-0 68.259,7.883 86.709,19.708c25.829,15.771 236.15,74.896 870.783,246.362c225.083,59.125 249.067,65.038 332.083,88.692c46.125,11.825 108.855,31.533 140.213,41.392c31.362,9.85 73.8,17.733 95.937,17.733c20.296,0 44.284,7.888 49.817,19.708c5.525,9.859 38.738,19.709 73.792,19.709c35.054,-0 68.262,7.887 73.8,19.708c5.533,9.863 38.733,19.713 73.791,19.713c35.055,-0 68.263,7.883 73.8,19.708c5.534,9.858 44.271,19.708 84.859,19.708c38.746,0 71.954,7.884 71.954,19.709c-0,9.858 27.667,19.708 62.725,19.708c35.054,-0 68.262,7.883 73.8,17.742c5.533,9.85 36.9,21.675 70.1,27.587c33.208,5.921 97.783,21.679 143.9,33.504c46.125,11.834 114.392,27.596 153.125,33.504c36.9,5.913 68.267,17.746 68.267,27.596c-0,9.859 33.208,17.746 71.945,17.746c40.592,0 75.646,7.875 79.334,15.758c3.691,9.859 171.579,59.13 374.516,110.375c202.934,53.217 376.355,102.484 387.425,112.342c9.225,9.85 44.28,17.733 75.646,17.733c33.2,0 66.409,7.888 71.946,19.713c5.533,9.858 38.746,19.708 73.8,19.708c35.046,0 66.413,7.884 71.946,17.734c5.533,9.858 36.9,21.683 70.108,27.595c33.213,5.909 97.779,21.68 143.904,33.505c46.125,11.833 110.688,27.591 143.9,33.504c33.209,5.912 64.567,17.746 70.1,27.596c5.534,9.858 36.9,17.733 71.955,17.733c35.054,-0 68.266,7.887 73.8,19.708c5.529,9.859 38.737,19.717 73.791,19.717c35.054,-0 68.267,7.879 73.8,19.712c5.534,9.85 38.738,19.709 73.792,19.709c35.054,-0 66.421,7.875 71.954,17.733c5.538,9.85 36.892,21.683 70.1,27.596c33.213,5.908 97.788,21.679 143.904,33.504c46.125,11.825 110.7,27.592 143.9,33.504c33.209,5.913 64.575,17.738 70.109,27.596c5.537,9.85 36.9,17.733 71.945,17.733c35.059,0 66.421,7.888 71.959,17.738c5.533,9.858 36.9,21.679 70.108,27.592c112.538,17.737 405.875,108.404 428.013,132.05c14.758,15.77 11.07,37.454 -14.759,84.754c-18.45,35.471 -92.25,187.229 -166.041,338.996c-71.955,151.754 -136.521,277.891 -143.9,281.833c-9.225,3.946 -14.763,19.708 -14.763,37.45c0,15.762 -14.758,53.217 -33.208,80.8c-18.45,29.567 -53.496,96.579 -77.484,151.767c-25.829,53.212 -51.658,100.516 -59.037,104.454c-9.225,3.937 -14.763,23.646 -14.763,45.329c0,19.708 -7.379,37.454 -18.45,37.454c-9.225,0 -18.45,17.733 -18.45,39.417c0,21.671 -7.379,39.416 -18.45,39.416c-9.216,0 -18.441,17.734 -18.441,37.442c-0,21.683 -7.379,41.392 -14.759,45.329c-12.916,5.913 -132.829,234.542 -287.8,557.763c-31.366,65.05 -62.733,120.229 -70.112,124.175c-9.225,3.937 -14.758,23.646 -14.758,43.354c-0,19.708 -5.538,39.417 -14.763,43.367c-7.379,1.962 -42.433,67.008 -77.479,143.87c-35.054,74.896 -70.108,139.934 -77.492,143.871c-9.225,3.946 -14.758,23.659 -14.758,45.338c-0,19.708 -7.379,37.446 -18.45,37.446c-9.225,-0 -18.442,17.733 -18.442,39.416c0,21.684 -5.533,39.417 -14.758,39.417c-7.383,0 -25.833,29.567 -38.746,63.075c-14.758,35.467 -70.108,143.871 -119.917,242.413c-51.658,96.579 -114.391,220.741 -140.212,275.929c-25.829,53.216 -51.658,100.516 -59.038,104.458c-9.225,3.946 -14.762,23.654 -14.762,43.362c-0,19.709 -5.533,39.417 -14.758,43.355c-7.38,3.941 -42.434,67.012 -77.48,143.875c-35.058,74.896 -70.112,139.933 -77.491,143.879c-9.225,3.937 -14.759,23.646 -14.759,43.354c0,19.713 -5.537,39.421 -14.762,43.367c-7.379,1.975 -42.425,67.012 -77.479,143.871c-77.492,165.554 -127.296,220.741 -249.067,285.779c-49.808,27.596 -125.45,72.925 -166.042,100.516c-40.579,27.596 -119.916,76.871 -175.258,108.405c-55.35,31.533 -103.317,63.062 -107.008,70.95c-3.692,9.858 -22.142,15.77 -40.584,15.77c-18.45,0 -36.9,5.909 -40.587,13.796c-1.846,9.85 -46.125,37.442 -97.788,65.038c-49.804,27.591 -95.929,53.212 -101.462,59.125c-5.538,5.912 -44.283,29.566 -86.708,53.216c-44.28,25.617 -114.388,65.038 -156.817,88.692c-44.279,25.621 -83.025,49.267 -88.558,55.179c-5.534,5.921 -33.209,23.654 -64.567,39.425c-29.521,15.763 -77.492,43.354 -105.167,63.067c-25.829,19.708 -60.875,35.479 -75.633,35.479c-16.604,-0 -31.367,7.883 -35.054,15.758c-7.384,19.709 -287.804,201.034 -309.946,201.034c-11.067,-0 -18.446,7.887 -18.446,17.737c0,9.859 -14.762,21.679 -31.367,27.592c-97.775,33.508 -188.17,114.317 -206.62,187.237c-40.592,147.821 68.254,321.259 214,346.88c66.42,9.858 90.404,1.975 193.716,-63.063c62.729,-41.392 158.663,-96.579 208.475,-122.2c51.65,-27.596 95.934,-53.212 101.467,-59.125c5.533,-5.912 51.658,-31.533 101.467,-59.129c51.658,-27.592 95.937,-55.188 97.783,-65.046c3.692,-7.875 22.142,-13.787 42.429,-13.787c18.45,-0 35.054,-5.921 35.054,-15.771c0,-7.884 31.363,-29.567 70.109,-47.3c36.9,-19.709 121.762,-67.013 188.183,-106.429c66.408,-39.417 173.412,-102.492 239.829,-141.909c66.421,-37.441 140.213,-82.771 166.042,-100.516c25.829,-17.734 71.954,-45.33 101.466,-61.092c31.367,-15.771 59.042,-33.504 64.575,-39.417c5.534,-5.921 35.055,-23.654 64.567,-39.425c31.363,-15.762 59.038,-33.496 64.575,-39.416c5.533,-5.913 42.433,-27.588 83.025,-51.242c108.846,-59.125 162.35,-92.633 188.171,-120.225c12.917,-11.825 40.592,-29.558 60.887,-35.479c20.292,-5.913 36.9,-21.675 36.9,-31.534c0,-9.85 11.067,-17.733 23.984,-17.733c29.512,0 123.604,-86.721 123.604,-116.287c-0,-11.825 5.537,-21.675 14.762,-21.675c14.759,-0 59.03,-94.605 59.03,-130.084c-0,-13.796 7.379,-27.591 16.604,-31.533c9.225,-3.938 46.125,-72.921 84.871,-153.729c38.737,-80.809 73.791,-151.759 81.17,-157.671c7.384,-5.908 40.592,-72.921 75.646,-147.817c35.046,-76.871 68.259,-141.908 73.792,-147.821c20.296,-21.683 55.35,-100.516 55.35,-126.137c-0,-15.771 5.533,-31.529 14.758,-35.479c7.384,-3.938 40.584,-63.063 75.638,-134.013c33.208,-70.958 94.096,-195.121 134.675,-275.929c40.591,-80.808 103.321,-210.883 140.212,-285.779c35.054,-76.863 79.334,-159.646 97.784,-187.238c16.604,-27.595 99.62,-191.175 182.645,-364.612c143.905,-295.642 249.059,-510.463 404.03,-821.871c36.9,-72.925 99.62,-203 142.058,-285.779c42.433,-84.746 107,-214.821 143.9,-287.746c36.9,-74.896 66.421,-147.817 66.421,-161.617c-0,-13.795 5.533,-29.566 14.758,-33.504c7.379,-1.975 42.425,-63.075 75.638,-134.021c35.054,-70.95 79.333,-155.704 95.937,-187.237c88.554,-155.696 95.933,-181.325 97.779,-295.629c0,-65.046 -11.071,-151.767 -23.987,-191.184c-25.829,-86.72 -114.379,-193.15 -156.817,-193.15c-16.604,0 -29.521,-7.875 -29.521,-17.733c0,-9.85 -35.046,-21.683 -77.479,-29.571c-151.279,-19.708 -217.7,-35.466 -228.771,-53.212c-5.533,-9.85 -36.891,-17.734 -71.946,-17.734c-35.054,0 -68.266,-9.85 -73.8,-19.708c-5.533,-11.825 -35.054,-19.712 -66.412,-19.712c-29.521,-0 -68.263,-7.884 -86.713,-19.709c-16.608,-9.858 -184.491,-59.125 -372.666,-108.4c-188.179,-49.266 -357.909,-98.541 -378.204,-106.429c-20.296,-9.85 -60.888,-23.646 -92.242,-31.533c-29.521,-5.909 -84.871,-19.709 -119.925,-29.567c-169.729,-47.292 -236.142,-63.062 -298.871,-72.921c-38.737,-5.912 -70.104,-17.737 -70.104,-27.587c-0,-9.859 -27.675,-17.742 -62.729,-17.742c-35.054,0 -70.1,-9.85 -75.634,-19.708c-5.537,-11.825 -38.745,-19.709 -73.8,-19.709c-35.058,0 -68.258,-9.85 -73.791,-19.708c-5.538,-11.825 -38.746,-19.708 -73.8,-19.708c-35.054,-0 -68.259,-9.85 -73.792,-19.713c-5.537,-11.821 -38.746,-19.708 -73.8,-19.708c-35.054,-0 -68.267,-9.85 -73.8,-19.708c-5.525,-11.821 -35.046,-19.709 -64.567,-19.709c-29.52,0 -59.041,-9.858 -64.575,-19.708c-5.533,-11.821 -38.737,-19.708 -73.791,-19.708c-35.054,-0.001 -66.421,-7.884 -71.954,-17.734c-5.534,-9.858 -36.9,-21.683 -70.1,-27.596c-145.746,-27.591 -284.113,-63.071 -761.942,-201.033c-457.533,-132.05 -516.575,-147.821 -595.908,-161.617c-33.2,-5.912 -64.567,-17.733 -70.1,-27.591c-5.538,-9.85 -36.9,-17.738 -71.955,-17.738c-35.045,0 -68.258,-9.858 -73.791,-19.708c-5.538,-11.821 -38.746,-19.709 -73.8,-19.709c-35.046,0 -66.413,-7.883 -71.946,-17.733c-5.538,-9.858 -36.9,-21.683 -70.113,-27.596c-33.208,-5.912 -97.775,-21.683 -143.9,-33.504c-46.125,-11.825 -110.691,-27.596 -143.9,-33.508c-33.212,-5.909 -64.575,-17.742 -70.112,-27.592c-5.525,-9.858 -38.733,-17.733 -73.788,-17.733c-35.058,-0 -77.491,-7.888 -95.933,-17.746c-27.675,-17.733 -94.096,-37.446 -344.996,-104.454c-40.591,-9.859 -105.166,-23.646 -143.9,-29.567c-36.9,-5.912 -73.8,-17.737 -79.337,-27.587c-5.534,-9.859 -36.9,-17.742 -70.1,-17.742c-33.209,-0 -66.421,-5.913 -71.954,-13.8c-14.763,-13.796 -654.942,-197.083 -815.446,-232.563c-29.513,-7.887 -71.946,-19.708 -92.242,-29.558c-20.296,-9.858 -60.883,-21.683 -92.242,-25.621c-29.52,-5.921 -121.77,-29.566 -202.941,-53.216c-81.179,-23.655 -178.954,-51.25 -215.854,-61.1c-38.746,-9.859 -105.159,-27.592 -147.592,-39.417c-44.279,-11.829 -110.692,-25.629 -149.438,-31.542c-36.9,-5.908 -73.787,-17.733 -79.325,-27.583c-5.533,-9.858 -38.745,-17.742 -73.8,-17.742c-35.054,0 -62.72,-7.887 -62.72,-17.737c-0,-9.859 -27.675,-21.684 -59.042,-27.592c-33.208,-5.912 -94.083,-19.712 -134.675,-31.533c-40.588,-9.859 -114.379,-29.567 -166.042,-41.392c-49.812,-13.796 -125.45,-33.504 -166.037,-43.362c-145.75,-39.417 -289.65,-39.417 -359.759,3.945Z" style="fill:#fff;fill-rule:nonzero;"/></g></svg>